<svg xmlns="http://www.w3.org/2000/svg"   version="1.1" id="Layer_1" x="0px" y="0px" viewBox="0 0 66 65.1" style="enable-background:new 0 0 66 65.1;" xml:space="preserve">
<style type="text/css">
	.st0{fill:#EABF3C;}
	.st1{fill:url(#SVGID_1_);}
</style>
    <title>Crowd-blue</title>
    <g>
	<path class="st0" d="M64.6,11.6L33,0L1.4,11.6c-0.9,0.3-1.4,1.1-1.4,2l0.7,17.9c0.5,14.8,7.9,25.9,19.6,33.1c1,0.6,2.3,0.3,2.9-0.7   c0.1-0.1,0.1-0.2,0.1-0.3l6.8-16.1c0.2-0.5,0-1.1-0.5-1.4h-0.1C23,44.3,19.4,37.5,21.3,31s8.7-10.1,15.2-8.2s10.1,8.7,8.2,15.2   c-1.2,3.9-4.2,7-8.2,8.2c-0.5,0.2-0.9,0.7-0.7,1.3v0.1l6.8,16.1c0.5,1.1,1.7,1.6,2.8,1.1c0.1,0,0.2-0.1,0.3-0.1   c11.7-7.2,19.1-18.2,19.6-33.1L66,13.7C66,12.7,65.5,11.9,64.6,11.6z"/>

<!--        <linearGradient id="SVGID_1_" gradientUnits="userSpaceOnUse" x1="49.6828" y1="550.491" x2="55.3968" y2="588.627" gradientTransform="matrix(1 0 0 1 0 -528)">-->
<!--		<stop offset="0" style="stop-color:#2684FF"/>-->
<!--            <stop offset="1" style="stop-color:#0052CC"/>-->
<!--	</linearGradient>-->
        <path class="st1" d="M33,22.4c6.7,0,12.2,5.4,12.2,12.2c0,5.4-3.5,10.1-8.7,11.7c-0.5,0.2-0.9,0.7-0.7,1.3v0.1l6.8,16.1   c0.5,1.1,1.7,1.6,2.8,1.1c0.1,0,0.2-0.1,0.3-0.1c11.7-7.2,19.1-18.2,19.6-33.1l0.7-18c0-0.9-0.5-1.7-1.4-2L33,0V22.4z"/>
</g>
</svg>