<svg xmlns="http://www.w3.org/2000/svg" version="1.1"  width="35" height="35"   viewBox="0 0 511.989 511.989"    ><g>
<g>
	<g>
		<g>
			<path d="M451.115,291.17c0.068-0.378,0.134-0.757,0.201-1.136c0.297-1.706,0.572-3.416,0.824-5.13
				c0.113-0.766,0.227-1.531,0.331-2.299c0.123-0.912,0.242-1.825,0.352-2.739c0.147-1.208,0.282-2.419,0.406-3.632
				c0.1-0.977,0.191-1.956,0.277-2.935c0.093-1.054,0.177-2.109,0.253-3.166c0.054-0.753,0.111-1.506,0.156-2.26
				c0.091-1.516,0.162-3.037,0.219-4.56c0.029-0.772,0.049-1.545,0.069-2.318c0.03-1.169,0.047-2.34,0.056-3.513
				c0.004-0.495,0.024-0.989,0.024-1.484c0-1.651-0.028-3.298-0.069-4.942c-0.001-0.029-0.002-0.058-0.003-0.087
				c-0.036-1.439-0.09-2.874-0.157-4.307c-0.018-0.399-0.038-0.797-0.059-1.195c-0.052-0.969-0.111-1.937-0.177-2.903
				c-0.046-0.69-0.09-1.38-0.143-2.069c-0.016-0.204-0.036-0.407-0.052-0.611c-3.744-46.905-23.795-90.484-57.433-124.106
				c-0.286-0.287-0.589-0.545-0.891-0.806c-20.3-20.09-45.076-35.963-73.124-45.892c-8.555-3.035-17.883,1.447-20.909,9.975
				c-3.017,8.52,1.447,17.891,9.975,20.909c61.515,21.782,104.201,77.771,109.681,141.974c0.034,0.412,0.074,0.822,0.106,1.234
				c0.036,0.457,0.063,0.916,0.095,1.374c0.064,0.938,0.124,1.876,0.172,2.817c0.012,0.233,0.023,0.467,0.035,0.7
				c0.123,2.632,0.189,5.274,0.189,7.926c0,0.486-0.01,0.969-0.014,1.454c-0.008,0.879-0.02,1.758-0.042,2.636
				c-0.017,0.692-0.036,1.383-0.062,2.073c-0.046,1.242-0.104,2.483-0.179,3.723c-0.039,0.652-0.088,1.302-0.135,1.953
				c-0.062,0.865-0.132,1.729-0.207,2.593c-0.069,0.79-0.141,1.579-0.221,2.366c-0.108,1.057-0.227,2.113-0.355,3.168
				c-0.089,0.73-0.183,1.458-0.281,2.185c-0.102,0.755-0.214,1.508-0.326,2.262c-0.189,1.263-0.391,2.522-0.608,3.776
				c-0.077,0.446-0.156,0.893-0.236,1.338c-10.481,57.586-51.103,106.463-107.61,126.482c-8.529,3.009-12.993,12.38-9.975,20.909
				c2.378,6.718,8.697,10.916,15.442,10.916c1.81,0,3.656-0.302,5.458-0.941c45.845-16.232,82.954-48.325,106.037-88.772
				c0.387-0.53,0.752-1.084,1.08-1.671C439.907,333.38,447.254,312.624,451.115,291.17z" fill="white"  ></path>
            <path d="M271.605,48.391L181.491,1.826c-8.058-4.145-17.927-0.994-22.071,7.038c-4.162,8.041-1.003,17.918,7.029,22.071
				l75.568,39.04l-40.202,77.849c-4.153,8.032-0.994,17.918,7.047,22.071c2.405,1.242,4.97,1.828,7.499,1.828
				c5.937,0,11.661-3.239,14.581-8.875l47.702-92.395C282.796,62.422,279.637,52.545,271.605,48.391z" fill="white"  ></path>
            <path d="M200.758,411.988c-65.966-23.358-110.286-86.04-110.286-156c0-3.461,0.107-6.911,0.32-10.347
				c0.002-0.035,0.005-0.07,0.007-0.106c0.064-1.024,0.139-2.046,0.222-3.068c0.038-0.458,0.081-0.915,0.122-1.373
				c0.052-0.577,0.104-1.154,0.161-1.729c0.08-0.787,0.166-1.572,0.256-2.356c0.025-0.221,0.05-0.443,0.076-0.664
				c7.412-61.848,49.397-115.245,109.113-136.393c8.529-3.009,12.993-12.38,9.975-20.909c-3.017-8.537-12.362-13.01-20.909-9.975
				c-57.294,20.286-100.941,65.344-120.62,120.534c-0.252,0.536-0.482,1.089-0.679,1.662c-5.905,17.124-9.403,34.896-10.461,52.976
				c-0.004,0.064-0.006,0.128-0.01,0.191c-0.07,1.212-0.132,2.425-0.18,3.64c-0.019,0.467-0.028,0.936-0.043,1.404
				c-0.027,0.836-0.058,1.673-0.074,2.51c-0.027,1.331-0.041,2.665-0.041,4.001c0,1.325,0.014,2.647,0.04,3.967
				c0.83,42.984,15.139,83.543,41.538,117.528c0.357,0.461,0.74,0.888,1.134,1.299c22.678,28.744,53.333,51.329,89.397,64.098
				c1.81,0.639,3.656,0.941,5.467,0.941c6.745,0,13.064-4.207,15.451-10.925C213.751,424.377,209.287,415.006,200.758,411.988z" fill="white"    ></path>
            <path d="M345.522,481.034l-75.559-39.013l40.185-77.867c4.153-8.04,0.994-17.918-7.047-22.071
				c-8.049-4.171-17.918-0.976-22.071,7.047l-47.702,92.421c-4.153,8.04-0.994,17.918,7.047,22.071l90.114,46.539
				c2.405,1.242,4.97,1.828,7.499,1.828c5.937,0,11.661-3.23,14.581-8.884C356.722,495.073,353.563,485.187,345.522,481.034z" fill="white"   ></path>
		</g>
	</g>
</g>
</g></svg>